<svg width="512" height="512" viewBox="0 0 512 512" xmlns="http://www.w3.org/2000/svg">
  <defs>
    <linearGradient id="bg" x1="0" y1="0" x2="1" y2="1">
      <stop offset="0" stop-color="#2C6AAE"/><stop offset="1" stop-color="#163E66"/>
    </linearGradient>
    <radialGradient id="glow" cx="0.5" cy="0.5" r="0.5">
      <stop offset="0" stop-color="#FFD37A" stop-opacity="0.95"/>
      <stop offset="0.5" stop-color="#F47B20" stop-opacity="0.38"/>
      <stop offset="1" stop-color="#F47B20" stop-opacity="0"/>
    </radialGradient>
    <linearGradient id="beam" x1="150" y1="250" x2="340" y2="172" gradientUnits="userSpaceOnUse">
      <stop offset="0" stop-color="#FFE08A" stop-opacity="0.5"/>
      <stop offset="1" stop-color="#FFE08A" stop-opacity="0"/>
    </linearGradient>
  </defs>
  <rect width="512" height="512" rx="120" fill="url(#bg)"/>

  <!-- 잔별 -->
  <circle cx="110" cy="140" r="2.5" fill="#FFFFFF" opacity="0.45"/>
  <circle cx="430" cy="360" r="2.5" fill="#FFFFFF" opacity="0.45"/>
  <circle cx="95"  cy="330" r="2"   fill="#FFFFFF" opacity="0.4"/>
  <circle cx="250" cy="95"  r="2"   fill="#FFFFFF" opacity="0.4"/>

  <!-- 등대 불빛 -> 별 방향 빛줄기 -->
  <polygon points="150,250 300,116 374,206" fill="url(#beam)"/>

  <!-- 큰 별 (오른쪽 위, 길잡이) -->
  <circle cx="340" cy="170" r="112" fill="url(#glow)"/>
  <path d="M340 90 C 347 150 358 161 412 170 C 358 179 347 190 340 250 C 333 190 322 179 268 170 C 322 161 333 150 340 90 Z" fill="#F8A23A"/>
  <path d="M340 122 C 345 161 352 165 388 170 C 352 175 345 179 340 218 C 335 179 328 175 292 170 C 328 165 335 161 340 122 Z" fill="#FFFFFF"/>

  <!-- 등대 받침(바위) -->
  <ellipse cx="150" cy="414" rx="58" ry="13" fill="#9FB6CC" opacity="0.55"/>

  <!-- 등대 탑 (작게, 왼쪽) -->
  <polygon points="130,414 170,414 160,262 140,262" fill="#FFFFFF"/>
  <polygon points="137.5,300 162.5,300 164.3,326 135.7,326" fill="#F47B20"/>
  <polygon points="134,352 166,352 167.7,378 132.3,378" fill="#F47B20"/>
  <path d="M144 414 L144 392 Q150 384 156 392 L156 414 Z" fill="#163E66"/>

  <!-- 랜턴실 -->
  <polygon points="138,262 162,262 159,244 141,244" fill="#FFFFFF"/>
  <polygon points="135,244 165,244 150,230" fill="#F47B20"/>
  <rect x="144" y="247" width="12" height="12" rx="2" fill="#FFD37A"/>
  <circle cx="150" cy="252" r="30" fill="url(#glow)"/>
</svg>
