<svg width="512" height="512" viewBox="0 0 512 512" xmlns="http://www.w3.org/2000/svg">
  <defs><linearGradient id="bg" x1="0" y1="0" x2="1" y2="1">
    <stop offset="0" stop-color="#3A79BE"/><stop offset="1" stop-color="#1F5A99"/></linearGradient></defs>
  <rect width="512" height="512" rx="120" fill="url(#bg)"/>
  <g stroke="#FFC233" stroke-width="4" opacity="0.6">
    <line x1="200" y1="210" x2="256" y2="150"/>
    <line x1="256" y1="150" x2="320" y2="195"/>
    <line x1="200" y1="210" x2="320" y2="195"/>
  </g>
  <circle cx="200" cy="210" r="9" fill="#FFFFFF"/>
  <circle cx="320" cy="195" r="9" fill="#FFC233"/>
  <circle cx="256" cy="150" r="12" fill="#F47B20"/>
  <!-- 펼친 책 -->
  <path d="M256 300 C 220 278 170 278 130 290 L130 392 C 170 380 220 380 256 402 Z" fill="#FFFFFF"/>
  <path d="M256 300 C 292 278 342 278 382 290 L382 392 C 342 380 292 380 256 402 Z" fill="#D9E6F4"/>
  <line x1="256" y1="300" x2="256" y2="402" stroke="#1F5A99" stroke-width="6"/>
</svg>
